<?xml version="1.0" encoding="UTF-8" standalone="no" ?>
<!DOCTYPE svg PUBLIC "-//W3C//DTD SVG 1.1//EN" "http://www.w3.org/Graphics/SVG/1.1/DTD/svg11.dtd">
<svg xmlns="http://www.w3.org/2000/svg" xmlns:xlink="http://www.w3.org/1999/xlink" version="1.1" width="1080" height="1080" viewBox="0 0 1080 1080" xml:space="preserve">
<desc>Created with Fabric.js 5.2.4</desc>
<defs>
</defs>
<rect x="0" y="0" width="100%" height="100%" fill="transparent"></rect>
<g transform="matrix(1 0 0 1 540 540)" id="c139bfc4-7f50-447f-bac6-8e478227c6cc"  >
<rect style="stroke: none; stroke-width: 1; stroke-dasharray: none; stroke-linecap: butt; stroke-dashoffset: 0; stroke-linejoin: miter; stroke-miterlimit: 4; fill: rgb(255,255,255); fill-rule: nonzero; opacity: 1; visibility: hidden;" vector-effect="non-scaling-stroke"  x="-540" y="-540" rx="0" ry="0" width="1080" height="1080" />
</g>
<g transform="matrix(1 0 0 1 540 540)" id="57c80cce-26a7-4f03-a855-b56e62be555c"  >
</g>
<g transform="matrix(1.18 1.04 -2.39 2.71 271.96 475.89)"  >
<g style="" vector-effect="non-scaling-stroke"   >
		<g transform="matrix(1 0 0 1 -15.63 0)"  >
<rect style="stroke: none; stroke-width: 1; stroke-dasharray: none; stroke-linecap: butt; stroke-dashoffset: 0; stroke-linejoin: miter; stroke-miterlimit: 4; fill: rgb(255,197,0); fill-rule: nonzero; opacity: 1;" vector-effect="non-scaling-stroke"  x="-11.466" y="-37.75" rx="0" ry="0" width="22.932" height="75.5" />
</g>
		<g transform="matrix(1 0 0 1 15.63 0)"  >
<rect style="stroke: none; stroke-width: 1; stroke-dasharray: none; stroke-linecap: butt; stroke-dashoffset: 0; stroke-linejoin: miter; stroke-miterlimit: 4; fill: rgb(255,197,0); fill-rule: nonzero; opacity: 1;" vector-effect="non-scaling-stroke"  x="-11.466" y="-37.75" rx="0" ry="0" width="22.932" height="75.5" />
</g>
</g>
</g>
<g transform="matrix(2.08 0 0 2.08 276.77 471.02)" id="17e97460-7725-4ab6-b564-06bedebad802"  >
<path style="stroke: rgb(183,160,27); stroke-opacity: 0.72; stroke-width: 0; stroke-dasharray: none; stroke-linecap: butt; stroke-dashoffset: 0; stroke-linejoin: miter; stroke-miterlimit: 4; fill: rgb(255,197,0); fill-rule: nonzero; opacity: 1;" vector-effect="non-scaling-stroke"  transform=" translate(-50, -50)" d="M 50 92.875 C 26.358 92.875 7.125 73.642 7.125 50 C 7.125 26.358000000000004 26.358 7.125 50 7.125 C 73.642 7.125 92.875 26.358 92.875 50 C 92.875 73.642 73.642 92.875 50 92.875 z M 50 9.125 C 27.461 9.125 9.125 27.461 9.125 50 C 9.125 72.538 27.461 90.875 50 90.875 C 72.538 90.875 90.875 72.538 90.875 50 C 90.875 27.461 72.538 9.125 50 9.125 z" stroke-linecap="round" />
</g>
<g transform="matrix(2.06 2.39 -2.39 2.06 271.88 479.65)" id="9739cffb-a097-42c7-a72c-c288f129f0ba"  >
<path style="stroke: rgb(255,207,0); stroke-width: 0; stroke-dasharray: none; stroke-linecap: butt; stroke-dashoffset: 0; stroke-linejoin: miter; stroke-miterlimit: 4; fill: rgb(255,182,45); fill-rule: nonzero; opacity: 1;" vector-effect="non-scaling-stroke"  transform=" translate(-50, -50)" d="M 90.375 90.375 L 9.625 90.375 L 9.625 9.625 L 90.375 9.625 L 90.375 90.375 z M 11.625 88.375 L 88.375 88.375 L 88.375 11.625 L 11.625 11.625 L 11.625 88.375 z" stroke-linecap="round" />
</g>
<g transform="matrix(1.86 0 0 1.86 754.33 494.35)" style="" id="bee3c06b-7da1-4149-aedd-91686b152b3f"  >
		<text xml:space="preserve" font-family="Raleway" font-size="100" font-style="normal" font-weight="900" style="stroke: none; stroke-width: 1; stroke-dasharray: none; stroke-linecap: butt; stroke-dashoffset: 0; stroke-linejoin: miter; stroke-miterlimit: 4; fill: rgb(255,238,144); fill-rule: nonzero; opacity: 1; white-space: pre;" ><tspan x="-168.2" y="31.41" >S</tspan><tspan x="-91.2" y="31.41" >p</tspan><tspan x="-10.5" y="31.41" >i</tspan><tspan x="34.1" y="31.41" >c</tspan><tspan x="107.3" y="31.41" >e</tspan></text>
</g>
</svg>